HIERARCHY
ROOT hip
{
	OFFSET 0.000000 0.000000 0.000000 
	CHANNELS 6 Xposition Yposition Zposition Xrotation Zrotation Yrotation
	JOINT abdomen
	{
		OFFSET 0.000000 3.402643 0.000000 
		CHANNELS 3 Xrotation Zrotation Yrotation
		JOINT chest
		{
			OFFSET 0.000000 8.438565 -0.680529 
			CHANNELS 3 Xrotation Zrotation Yrotation
			JOINT neck
			{
				OFFSET 0.000000 10.207942 -0.272212 
				CHANNELS 3 Xrotation Zrotation Yrotation
				JOINT head
				{
					OFFSET 0.000000 3.130431 0.000000 
					CHANNELS 3 Xrotation Zrotation Yrotation
					End Site
					{
						OFFSET 0.000000 3.130435 0.000000 
					}
				}
			}
			JOINT lCollar
			{
				OFFSET 3.470700 6.669187 -0.816635 
				CHANNELS 3 Yrotation Zrotation Xrotation
				JOINT lShldr
				{
					OFFSET 3.198488 0.000000 0.000000 
					CHANNELS 3 Zrotation Yrotation Xrotation
					JOINT lForeArm
					{
						OFFSET 10.139888 0.000000 0.000000 
						CHANNELS 3 Yrotation Zrotation Xrotation
						JOINT lHand
						{
							OFFSET 8.370511 0.000000 0.000000 
							CHANNELS 3 Zrotation Yrotation Xrotation
							End Site
							{
								OFFSET 4.083176 0.000000 0.000000 
							}
						}
					}
				}
			}
			JOINT rCollar
			{
				OFFSET -3.470700 6.669187 -0.816635 
				CHANNELS 3 Yrotation Zrotation Xrotation
				JOINT rShldr
				{
					OFFSET -3.198488 0.000000 0.000000 
					CHANNELS 3 Zrotation Yrotation Xrotation
					JOINT rForeArm
					{
						OFFSET -10.139888 0.000000 0.000000 
						CHANNELS 3 Yrotation Zrotation Xrotation
						JOINT rHand
						{
							OFFSET -8.370511 0.000000 0.000000 
							CHANNELS 3 Zrotation Yrotation Xrotation
							End Site
							{
								OFFSET -4.083176 0.000000 0.000000 
							}
						}
					}
				}
			}
		}
	}
	JOINT lThigh
	{
		OFFSET 5.308129 -1.633274 1.361059 
		CHANNELS 3 Xrotation Zrotation Yrotation
		JOINT lShin
		{
			OFFSET -2.041588 -20.007561 0.000000 
			CHANNELS 3 Xrotation Zrotation Yrotation
			JOINT lFoot
			{
				OFFSET 0.000000 -19.190928 -1.224953 
				CHANNELS 3 Xrotation Yrotation Zrotation
				End Site
				{
					OFFSET 0.000000 -2.449906 4.627600 
				}
			}
		}
	}
	JOINT rThigh
	{
		OFFSET -5.308129 -1.633274 1.361059 
		CHANNELS 3 Xrotation Zrotation Yrotation
		JOINT rShin
		{
			OFFSET 2.041588 -20.007561 0.000000 
			CHANNELS 3 Xrotation Zrotation Yrotation
			JOINT rFoot
			{
				OFFSET 0.000000 -19.190928 -1.224953 
				CHANNELS 3 Xrotation Yrotation Zrotation
				End Site
				{
					OFFSET 0.000000 -2.449906 4.627600 
				}
			}
		}
	}
}
MOTION
Frames: 15
Frame Time: 0.033333
86.146812 52.246468 -30.655642 -0.537109 -8.632827 102.723160 7.795086 -16.050425 3.485918 -13.857423 6.445313 1.396484 51.063168 8.107644 2.471410 -38.056641 -26.249998 -0.629319 2.000000 -2.000000 0.000000 -86.044922 20.537111 2.981943 -46.188030 -2.051650 -1.852034 9.777812 64.652802 7.473075 -2.000000 2.000000 0.000000 48.730469 11.943360 19.640694 91.119629 -0.191895 -2.970807 -86.125137 -46.716618 92.051781 -9.406404 4.759910 9.032990 20.199448 -4.905606 -2.100310 -7.659826 5.803850 1.962568 -10.650180 -10.382730 -18.062038 19.468073 4.491107 1.733411 -7.912423 -9.353392 -5.557141 
86.188103 52.270096 -30.795891 -0.537109 -8.632827 103.074730 7.850402 -16.121317 3.988449 -14.042970 6.279297 1.318359 51.063168 8.107644 2.471410 -37.861332 -25.898438 -1.523439 2.000000 -2.000000 0.000000 -86.542969 20.498045 3.056640 -46.011116 -1.961061 -1.808439 9.721301 64.593597 6.712015 -2.000000 2.000000 0.000000 49.062504 13.750000 19.299196 87.774078 -0.047767 -2.757128 -87.030342 -49.182152 94.166206 -9.431061 4.627288 8.713489 20.198526 -4.905396 -2.129454 -7.629051 5.810958 1.964165 -10.760931 -10.652719 -17.682005 19.488678 4.930733 1.140594 -7.761977 -9.545120 -5.211746 
86.242500 52.277973 -30.926647 -0.722656 -8.623046 103.457031 7.728059 -16.195513 4.497391 -14.042969 6.103516 1.279297 51.063168 8.107644 2.471410 -37.880859 -25.722654 -2.128908 2.000000 -2.000000 0.000000 -86.464844 20.996092 3.496093 -46.011116 -1.961061 -1.808439 9.257221 64.637772 6.289061 -2.000000 2.000000 0.000000 49.082031 14.531250 18.947762 85.849709 0.019347 -2.733689 -87.964371 -51.503258 95.247078 -9.476047 4.341610 7.829238 19.659378 -5.002364 -1.876306 -7.128129 6.236657 1.517287 -10.504679 -10.745499 -18.059496 19.308214 4.919917 1.173039 -7.759619 -9.576736 -5.205065 
86.282990 52.285851 -31.056253 -0.722656 -8.623046 103.974609 7.789907 -16.266150 4.999886 -14.218750 6.123048 1.251041 51.063168 8.107644 2.471410 -37.880859 -25.722654 -2.832033 2.000000 -2.000000 0.000000 -86.240234 21.445314 4.042969 -46.187180 -1.951882 -1.818755 9.409531 65.127701 6.152199 -2.000000 2.000000 0.000000 49.228516 14.492187 18.293459 83.924797 0.095079 -2.690179 -87.794701 -54.054279 95.203362 -9.500496 4.383906 7.477819 19.477022 -5.003135 -1.880380 -7.140054 6.089841 1.644787 -10.338497 -10.910698 -18.952030 19.319359 4.851665 1.630444 -7.858362 -9.796154 -5.402216 
86.324310 52.301609 -31.197891 -0.722656 -8.457032 104.324730 7.926719 -16.173862 5.174784 -14.228516 5.957031 1.201172 51.063168 8.107644 2.471410 -38.076172 -25.556639 -3.232421 2.000000 -2.000000 0.000000 -85.878906 21.660156 4.271183 -46.188030 -2.051650 -1.852034 9.613922 65.129761 6.491320 -2.000000 2.000000 0.000000 49.619137 13.564453 17.500002 82.165321 0.355758 -2.968463 -87.024857 -56.934669 93.989197 -9.177227 4.412572 6.959409 19.477335 -5.003179 -1.870659 -7.223389 6.232831 1.810508 -9.931073 -11.023798 -18.799524 18.955458 4.919584 1.134171 -7.749738 -9.568547 -5.210976 
86.360870 52.301609 -31.326807 -0.908203 -8.271485 104.881409 8.060946 -16.259253 5.320115 -14.228516 5.957031 1.201172 51.063168 8.107644 2.471410 -38.066414 -25.722654 -3.632812 2.000000 -2.000000 0.000000 -85.986328 21.718750 4.960938 -46.363220 -1.952451 -1.828500 9.260289 65.507187 5.901654 -2.000000 2.000000 0.000000 50.390625 13.222657 16.418253 80.583839 0.229306 -2.643279 -85.314125 -60.056721 92.498962 -9.186077 4.255726 6.775962 19.477339 -5.003164 -1.870657 -7.238517 6.000762 2.016721 -9.635608 -11.076027 -19.533054 18.960949 4.871916 1.623236 -7.769883 -9.931370 -5.037895 
86.403809 52.293724 -31.466473 -0.908203 -8.095704 105.410156 8.195822 -16.164635 5.516620 -14.228516 5.957031 1.201172 51.063168 8.107644 2.471410 -38.261719 -25.908199 -3.945313 2.000000 -2.000000 0.000000 -85.917969 21.328125 4.954724 -46.363220 -1.952451 -1.828500 9.468709 65.284584 5.976429 -2.000000 2.000000 0.000000 51.699219 12.792969 14.169923 78.649414 0.315351 -2.608952 -80.066025 -64.381203 88.201714 -8.854841 4.266004 6.433171 19.477640 -5.003227 -1.860939 -7.406611 5.954914 2.262708 -9.187923 -11.147657 -19.735847 18.950100 4.874987 1.622890 -7.799953 -10.091042 -5.178939 
86.432610 52.309486 -31.603601 -1.083984 -7.929687 105.937500 8.372289 -16.157808 5.498333 -14.218750 6.123048 1.251041 51.063168 8.107644 2.471410 -38.642582 -26.083982 -4.169924 2.000000 -2.000000 0.000000 -86.015625 21.152344 5.019532 -46.363220 -1.952451 -1.828500 9.855871 65.073662 6.380322 -2.000000 2.000000 0.000000 53.652344 12.539062 11.281416 76.714722 0.391934 -2.917480 -70.780922 -68.461723 79.906326 -8.675301 4.107243 6.291883 19.487902 -4.999913 -1.880700 -7.362973 5.619685 2.267317 -8.593230 -11.062495 -20.141172 18.779064 4.872902 1.608121 -7.680688 -9.964797 -4.594558 
86.475082 52.333118 -31.748125 -1.064453 -7.734375 106.463531 8.549084 -16.166922 5.494966 -14.218750 6.123048 1.251041 51.063168 8.107644 2.471410 -38.828121 -26.601561 -4.252420 2.000000 -2.000000 0.000000 -86.240234 20.849609 5.087891 -46.539024 -1.942703 -1.829070 9.644424 64.895638 6.021195 -2.000000 2.000000 0.000000 55.732422 11.582032 8.476562 75.309875 0.297263 -2.971847 -61.103588 -72.750282 71.236725 -8.347906 3.954229 5.959850 19.312548 -4.934875 -1.846486 -7.230488 5.256491 2.587274 -8.260859 -11.256713 -20.330164 18.598019 4.891102 1.742254 -7.257401 -10.060046 -4.209299 
86.519630 52.364635 -31.893126 -1.064453 -7.578125 106.826164 8.717820 -15.989196 5.524426 -14.218750 6.123048 1.251041 51.063168 8.107644 2.471410 -39.013676 -26.943357 -4.414064 2.000000 -2.000000 0.000000 -86.533203 20.546875 4.560547 -46.716160 -2.053358 -1.881270 10.228903 64.686913 6.735110 -2.000000 2.000000 0.000000 57.910160 10.957031 5.558498 74.252373 0.506102 -2.861985 -48.122128 -76.999374 58.811474 -8.161858 3.797591 5.758663 19.128754 -4.945160 -1.822928 -7.025758 5.105342 2.625066 -7.860860 -11.179420 -20.904209 18.246429 4.881273 1.721677 -7.312302 -10.303567 -4.154226 
86.537918 52.380386 -32.033718 -1.064453 -7.578125 107.177734 8.893286 -15.973254 5.509508 -14.218750 6.123048 1.251041 51.063168 8.107644 2.471410 -39.013676 -27.285154 -4.482423 2.000000 -2.000000 0.000000 -86.601563 20.185547 4.837354 -46.716160 -2.053358 -1.881270 10.197143 64.500961 6.705061 -2.000000 2.000000 0.000000 60.000000 10.488281 2.218576 72.672287 0.412561 -2.935843 -27.743748 -80.158676 38.982441 -7.955131 3.601189 5.957348 19.317568 -4.930680 -2.031483 -7.659321 5.018913 2.888087 -7.703163 -11.388075 -21.097250 18.246429 4.881267 1.721676 -7.261876 -9.948494 -3.922874 
86.567307 52.388271 -32.170845 -1.064453 -7.578125 107.519531 8.893286 -15.973254 5.509508 -14.042970 6.279297 1.318359 51.063168 8.107644 2.471410 -39.208988 -27.636717 -4.453124 2.000000 -2.000000 0.000000 -86.533203 19.580078 5.214843 -46.715347 -1.934093 -1.849131 9.374867 64.355659 5.573401 -2.000000 2.000000 0.000000 62.500000 10.087891 -1.209227 71.629173 0.630996 -2.991655 5.767381 -81.725792 5.900160 -7.786135 3.628540 5.774707 18.930126 -5.106917 -2.015458 -7.070549 4.904458 2.708059 -7.490196 -11.698489 -21.285759 18.072151 4.891303 1.698916 -7.099553 -10.234627 -4.078422 
86.590332 52.388271 -32.307049 -1.064453 -7.382812 107.684288 8.900989 -16.163507 5.485821 -14.042970 6.279297 1.318359 51.063168 8.107644 2.471410 -39.199223 -27.802732 -4.667972 2.000000 -2.000000 0.000000 -86.064453 18.759768 5.380860 -46.715347 -1.934093 -1.849131 8.712605 64.241905 5.014509 -2.000000 2.000000 0.000000 65.107422 9.667969 -4.853516 70.393204 0.678199 -2.793361 37.021694 -80.210449 -24.565222 -7.802356 3.632774 5.589861 18.605381 -5.109638 -1.988726 -6.893929 4.883437 2.282435 -7.352280 -11.887652 -21.440102 18.067343 4.909700 1.701504 -7.054871 -9.907489 -3.872638 
86.631187 52.388271 -32.449722 -1.064453 -7.578125 108.046875 8.944409 -16.080416 5.318830 -13.867188 6.279297 1.523438 51.063168 8.107644 2.471410 -39.208984 -27.978514 -4.697267 2.000000 -2.000000 0.000000 -85.839844 18.339846 5.881980 -46.715347 -1.934093 -1.849131 8.290730 64.101418 4.551606 -2.000000 2.000000 0.000000 67.724609 9.335938 -7.820682 69.337959 0.696567 -2.772743 56.774860 -76.728577 -43.307110 -7.580474 3.286952 5.444346 18.605684 -5.109692 -1.979006 -6.795814 4.747967 2.569032 -7.167491 -12.086499 -21.833447 18.071850 4.891227 1.708635 -7.133343 -10.143137 -3.795490 
86.673882 52.380386 -32.602242 -1.064453 -7.578125 108.222656 8.774498 -16.252422 5.301827 -13.691406 6.269532 1.534270 51.063168 8.107644 2.471410 -38.994144 -27.978514 -4.794924 2.000000 -2.000000 0.000000 -85.595703 17.724609 5.771485 -46.716160 -2.053358 -1.881270 7.987501 63.776524 4.407911 -2.000000 2.000000 0.000000 70.468750 9.375000 -11.240233 68.275482 0.603030 -2.846600 68.718323 -72.606522 -54.804703 -7.777189 3.151063 4.914636 18.968657 -5.526487 -1.789058 -7.444002 5.073792 3.297325 -7.157437 -12.405743 -22.003925 18.082245 4.891402 1.699732 -7.310675 -9.931800 -3.941652 
